<svg xmlns="http://www.w3.org/2000/svg" version="1.1" xmlns:xlink="http://www.w3.org/1999/xlink" xmlns:svgjs="http://svgjs.dev/svgjs" width="1500" height="935" viewBox="0 0 1500 935"><g transform="matrix(1,0,0,1,-0.9090909090909918,0.3785425101214628)"><svg viewBox="0 0 396 247" data-background-color="#ffffff" preserveAspectRatio="xMidYMid meet" height="935" width="1500" xmlns="http://www.w3.org/2000/svg" xmlns:xlink="http://www.w3.org/1999/xlink"><g id="tight-bounds" transform="matrix(1,0,0,1,0.2400000000000091,-0.09999999999999432)"><svg viewBox="0 0 395.52 247.2" height="247.2" width="395.52"><g><svg></svg></g><g><svg viewBox="0 0 395.52 247.2" height="247.2" width="395.52"><mask id="e9a365b7-3536-4538-b1f9-f40e37dabe0e"><rect width="640" height="400" fill="white"></rect><g transform="matrix(1,0,0,1,65.37471174031134,37.08)"><svg viewBox="0 0 264.7705765193773 173.04" height="173.04" width="264.7705765193773"><g><svg viewBox="0 0 264.7705765193773 173.04" height="173.04" width="264.7705765193773"><g><svg viewBox="0 0 316.416 206.79270846393655" height="173.04" width="264.7705765193773"><g><svg viewBox="0 0 316.416 206.79270846393655" height="206.79270846393655" width="316.416"><g id="SvgjsG1030"><svg viewBox="0 0 316.416 206.79270846393655" height="206.79270846393655" width="316.416" id="SvgjsSvg1029"><g><svg viewBox="0 0 316.416 120.5195244385733" height="120.5195244385733" width="316.416"><g transform="matrix(1,0,0,1,0,0)"><svg width="316.416" viewBox="-2.35 -39.9 114.53999999999999 44.25" height="120.5195244385733" data-palette-color="#636365"><path d="M4.75-1.7Q2.8-2.6 1.65-4.35L1.65-4.35Q2.6-5.55 3.95-5.55L3.95-5.55Q4.6-5.55 5.38-5.3 6.15-5.05 6.4-4.95L6.4-4.95Q7.85-4.45 9.45-4.45L9.45-4.45Q12-4.45 14.23-5.65 16.45-6.85 17.55-8.9L17.55-8.9Q20.4-14.2 20.4-21.3L20.4-21.3Q20.4-24.55 19.8-28.9L19.8-28.9Q18.4-28.85 17.32-28.4 16.25-27.95 14.55-26.95L14.55-26.95Q13.4-26.3 12.1-26.3L12.1-26.3Q11.3-26.3 10.65-26.5L10.65-26.5Q10.1-26.65 9.53-27.03 8.95-27.4 8.75-27.85L8.75-27.85Q8.6-28.15 8.6-28.5L8.6-28.5Q8.6-29 8.95-29.45 9.3-29.9 9.8-30.15L9.8-30.15Q13.55-31.95 16.9-33.2L16.9-33.2Q17.7-33.45 18.85-33.55L18.85-33.55Q19.9-33.65 20.4-33.8L20.4-33.8Q21.9-34.15 22.9-34.15L22.9-34.15Q24.95-34.15 26.6-32.7L26.6-32.7 26.6-29.85Q26.65-28.45 26.65-25.6L26.65-25.6 26.65-23.85 26.6-22.45Q26.5-18 26.15-14.93 25.8-11.85 24.65-8.9L24.65-8.9Q23.35-5.65 21.18-3.65 19-1.65 15.65-1L15.65-1Q13.05-0.45 10.75-0.45L10.75-0.45Q7.55-0.45 4.75-1.7L4.75-1.7ZM46.95-2.55Q46.5-2.75 46.05-2.75L46.05-2.75Q45.6-2.75 45.27-2.53 44.95-2.3 44.55-1.85L44.55-1.85Q43.95-1.25 43.3-0.85L43.3-0.85Q42.7-0.5 41.1-0.2L41.1-0.2Q40.4-0.1 39.95-0.1L39.95-0.1Q37.85-0.1 35.57-1.03 33.3-1.95 32.35-3.25L32.35-3.25Q31.35-4.65 31.4-6.25L31.4-6.25Q31.45-8.65 33.4-11.05L33.4-11.05Q35.3-13.35 36.87-14.3 38.45-15.25 41.2-15.5L41.2-15.5Q41.8-15.5 42.92-15.7 44.05-15.9 44.05-16.25L44.05-16.25Q44.05-16.95 43.42-17.53 42.8-18.1 40.9-18.1L40.9-18.1Q40.2-18.1 38.8-18L38.8-18Q37.4-17.9 36.85-17.9L36.85-17.9Q35.15-17.9 34.4-18.45L34.4-18.45Q34.2-18.55 34.2-19.4L34.2-19.4Q34.2-20.9 35.25-21.3L35.25-21.3Q37.4-22.1 39.7-22.15L39.7-22.15Q42.6-22.15 45.07-20.88 47.55-19.6 48.7-17.7L48.7-17.7Q49.85-15.8 50.2-12.45L50.2-12.45Q50.6-8.7 50.6-2.9L50.6-2.9Q50.6-1.3 50.15-1.05L50.15-1.05Q49.75-0.8 49.4-0.8L49.4-0.8Q48.95-0.8 48.57-1.07 48.2-1.35 47.75-1.85L47.75-1.85Q47.3-2.4 46.95-2.55L46.95-2.55ZM39.05-3.15Q41.4-3.85 43.65-5.4L43.65-5.4Q44.15-5.75 44.55-6.3 44.95-6.85 45.05-7L45.05-7Q45.15-7.15 45.22-7.88 45.3-8.6 45.25-9.05L45.25-9.05Q45.2-9.2 45.07-9.85 44.95-10.5 44.7-11L44.7-11Q44.45-11.4 43.9-11.75 43.35-12.1 42.9-12.05L42.9-12.05Q41.95-12 40.85-11.35 39.75-10.7 38.8-9.6L38.8-9.6Q37.85-8.45 37.32-7.28 36.8-6.1 36.8-5.1L36.8-5.1Q36.9-3.75 37.55-3.3L37.55-3.3Q37.9-3.05 38.4-3.05L38.4-3.05Q38.8-3.05 39.05-3.15L39.05-3.15ZM55.1-18.65Q54.75-19.05 54.62-19.5 54.5-19.95 54.4-20.75L54.4-20.75Q54.85-21.8 56.05-21.8L56.05-21.8Q56.65-21.7 56.9-21.7L56.9-21.7Q57.9-21.7 58.15-22.3 58.4-22.9 58.4-23.7 58.4-24.5 58.4-24.95L58.4-24.95 58.55-27.95Q58.6-28.95 58.67-30.43 58.75-31.9 58.85-33.85L58.85-33.85Q58.9-34.9 59.37-35.4 59.85-35.9 60.7-35.9L60.7-35.9Q61.3-35.9 61.65-35.8L61.65-35.8Q63.7-35.35 64.4-34.5 65.1-33.65 65.35-31.95L65.35-31.95Q65.4-31.6 65.25-30.5L65.25-30.5 64.35-22.7Q64.3-22.4 64.2-21.98 64.1-21.55 64.1-21.35L64.1-21.35Q64.1-20.9 64.6-20.75 65.1-20.6 66.45-20.65L66.45-20.65Q68.75-21.15 69.95-21.3L69.95-21.3Q70.2-21.35 70.75-21.35L70.75-21.35Q71.35-21.35 71.55-21.2L71.55-21.2Q71.75-21.1 71.87-20.63 72-20.15 72-19.55L72-19.55Q72-19 71.87-18.55 71.75-18.1 71.55-18.05L71.55-18.05Q70.2-17.65 68.35-17.4L68.35-17.4Q66.15-17 65.1-16.7L65.1-16.7Q64.55-16.55 64-15.95 63.45-15.35 63.4-14.85L63.4-14.85Q63.3-12.4 63.25-9.85L63.25-9.85Q63.2-7.9 63.4-5.95L63.4-5.95Q63.55-4.3 64.05-3.58 64.55-2.85 65.55-2.85L65.55-2.85Q66.35-2.85 67.85-3.4L67.85-3.4Q68.65-3.75 69.25-3.75L69.25-3.75Q70.2-3.75 70.6-2.7L70.6-2.7Q70.75-2.35 70.75-2L70.75-2Q70.75-1.35 70.27-0.95 69.8-0.55 69-0.25L69-0.25Q67.5 0.3 65.95 0.35L65.95 0.35Q63.85 0.35 62-0.68 60.15-1.7 59.07-3.55 58-5.4 58.15-7.8L58.15-7.8Q58.2-8.75 58.2-10.8L58.2-10.8Q58.2-14.05 57.95-17.4L57.95-17.4Q57.9-17.7 57.6-17.82 57.3-17.95 56.6-18.1L56.6-18.1Q55.45-18.3 55.1-18.65L55.1-18.65ZM80.49-23.3Q80.39-23 79.77-22.65 79.14-22.3 78.74-22L78.74-22 77.34-22.75Q75.29-23.85 74.54-24.5L74.54-24.5Q74.14-24.8 74.14-25.25L74.14-25.25Q74.14-25.55 74.37-25.78 74.59-26 75.04-26L75.04-26Q76.99-26 79.79-25L79.79-25Q80.09-24.95 80.34-24.33 80.59-23.7 80.49-23.3L80.49-23.3ZM75.99-14Q76.14-14.65 76.19-14.95 76.24-15.25 76.24-15.6L76.24-15.6Q76.24-16.3 76.67-16.7 77.09-17.1 78.29-17.1L78.29-17.1Q79.69-17.1 80.77-16.23 81.84-15.35 82.09-13.95L82.09-13.95Q82.24-13.25 82.29-12.4 82.34-11.55 82.34-11.3L82.34-11.3 83.04-2.75Q83.19-1.4 82.67-0.68 82.14 0.05 80.69 0.05L80.69 0.05Q79.44 0.05 78.57-0.65 77.69-1.35 77.49-2.45L77.49-2.45 76.19-13.05 75.99-14ZM95.29-18.85Q95.29-18.55 95.19-18.07 95.09-17.6 95.14-17.45L95.14-17.45Q98.59-18.2 100.99-18.2L100.99-18.2Q104.74-18.2 106.64-14.6L106.64-14.6Q108.19-11.55 108.19-7.85L108.19-7.85Q108.19-6.9 107.99-5.1L107.99-5.1Q107.84-3.9 107.04-3.18 106.24-2.45 105.14-2.45L105.14-2.45Q103.99-2.45 103.52-2.88 103.04-3.3 102.97-3.85 102.89-4.4 102.89-5.6L102.89-5.6 102.84-6.65Q102.74-9.65 102.44-11.85L102.44-11.85Q102.29-12.75 101.77-13.13 101.24-13.5 100.39-13.5L100.39-13.5Q99.59-13.5 98.49-13.25L98.49-13.25Q96.79-12.8 96.22-12.55 95.64-12.3 94.54-11.5L94.54-11.5Q94.19-11.25 94.04-10.5 93.89-9.75 93.89-9.65L93.89-9.65Q93.24-6.45 92.49-2L92.49-2Q92.44-1.8 92.29-1.05 92.14-0.3 91.72 0.03 91.29 0.35 90.49 0.25L90.49 0.25Q87.34-0.15 87.29-2.4L87.29-2.4Q87.24-5.3 87.74-9.25L87.74-9.25Q88.09-12.1 88.39-13.85L88.39-13.85Q88.49-14.65 88.67-15.8 88.84-16.95 88.99-18.45L88.99-18.45Q89.14-19.6 89.29-20.15 89.44-20.7 89.99-21.08 90.54-21.45 91.69-21.45L91.69-21.45Q93.14-21.45 94.09-20.8 95.04-20.15 95.29-18.95L95.29-18.95 95.29-18.85Z" opacity="1" transform="matrix(1,0,0,1,0,0)" fill="black" class="wordmark-text-0" id="SvgjsPath1028" stroke-width="7" stroke="black" stroke-linejoin="round"></path></svg></g></svg></g><g transform="matrix(1,0,0,1,3.5,144.36638138335533)"><svg viewBox="0 0 309.416 62.42632708058123" height="62.42632708058123" width="309.416"><g transform="matrix(1,0,0,1,0,0)"><svg width="309.416" viewBox="-9.9 -38.8 320.71 63.9" height="62.42632708058123" data-palette-color="#636365"><path d="M21.95-3.8L21.95-3.8Q19.3-3.8 16.5-3L16.5-3Q10 7.15 4.23 14.13-1.55 21.1-4.15 21.1L-4.15 21.1Q-5.9 21.1-5.9 19.18-5.9 17.25-4.2 14.05-2.5 10.85 0.28 7.48 3.05 4.1 7.08 0.98 11.1-2.15 15.25-3.7L15.25-3.7Q20.4-12.5 24.1-20.3 27.8-28.1 27.8-30.35L27.8-30.35Q27.8-33.3 25.53-33.3 23.25-33.3 19.35-30.55 15.45-27.8 11.8-24 8.15-20.2 5.48-15.85 2.8-11.5 2.8-8.85 2.8-6.2 5.35-6.2L5.35-6.2Q8.05-6.2 11.43-9.4 14.8-12.6 15.35-14.85L15.35-14.85Q15.45-15.2 15.83-15.2 16.2-15.2 16.2-14.85L16.2-14.85Q16.2-12.2 11.55-8.43 6.9-4.65 3.65-4.65L3.65-4.65Q1.05-4.65 1.05-7.83 1.05-11 4.03-15.8 7-20.6 11.08-24.75 15.15-28.9 19.63-31.85 24.1-34.8 26.9-34.8L26.9-34.8Q30.25-34.8 30.25-30.45L30.25-30.45Q30.25-27.85 26.55-20.45 22.85-13.05 17.4-4.4L17.4-4.4Q20.25-5.15 21.88-5.15 23.5-5.15 24.38-4.67 25.25-4.2 25.25-3.45L25.25-3.45Q25.25-1.85 24.23-0.5 23.2 0.85 21.85 0.85L21.85 0.85Q21.65 0.85 21.65 0.7L21.65 0.7Q21.65 0.2 22.35-0.15L22.35-0.15Q23.3-1 23.3-2.4 23.3-3.8 21.95-3.8ZM-3.85 17.7L-3.85 17.7Q-3.85 18.85-2.95 18.85L-2.95 18.85Q-0.55 18.85 4.13 12.9 8.8 6.95 14.35-2.2L14.35-2.2Q9.5-0.25 5.1 3.93 0.7 8.1-1.58 11.9-3.85 15.7-3.85 17.7ZM92.44-5.95L92.44-5.95Q92.14-5.95 92.14-6.3L92.14-6.3 92.29-6.65Q93.19-7.5 93.19-8.1L93.19-8.1Q93.19-8.85 92.39-8.85L92.39-8.85Q90.64-8.85 87.66-6.43 84.69-4 84.69-2.1L84.69-2.1Q84.69-1.3 85.74-1.3 86.79-1.3 88.16-2.18 89.54-3.05 90.51-3.93 91.49-4.8 91.59-4.8L91.59-4.8Q92.09-4.75 92.09-4.3L92.09-4.3Q92.09-4.1 91.31-3 90.54-1.9 90.54-1.25L90.54-1.25Q90.54-0.75 91.36-0.75 92.19-0.75 94.29-1.73 96.39-2.7 97.99-3.7L97.99-3.7 99.59-4.7Q99.64-4.6 99.64-4.3 99.64-4 99.19-3.8L99.19-3.8Q92.44 0.8 89.79 0.8L89.79 0.8Q88.49 0.8 88.49-0.5L88.49-0.5Q88.49-1.05 88.69-1.65L88.69-1.65Q88.34-1.25 86.61-0.43 84.89 0.4 83.54 0.4 82.19 0.4 82.19-0.85L82.19-0.85Q82.19-3.8 86.29-6.88 90.39-9.95 93.19-9.95L93.19-9.95Q94.84-9.95 94.84-8.55L94.84-8.55Q94.84-7.75 93.84-6.85 92.84-5.95 92.44-5.95ZM155.98-16.5L155.98-16.5Q159.38-16.5 162.68-16.55L162.68-16.55Q168.03-23.4 169.98-23.4L169.98-23.4Q170.68-23.4 170.68-22.65L170.68-22.65Q170.68-20.25 167.18-16.65L167.18-16.65 170.98-16.7Q174.78-16.85 175.63-16.85 176.48-16.85 176.48-16.65L176.48-16.65Q176.48-15.7 175.18-15.65L175.18-15.65 165.78-15.25Q163.33-12.95 159.73-10.4L159.73-10.4Q155.93-4.15 155.93-1.9L155.93-1.9Q155.93-0.75 157.4-0.75 158.88-0.75 162.08-2.35L162.08-2.35 166.13-4.7Q166.18-4.6 166.18-4.3 166.18-4 165.73-3.8L165.73-3.8Q164.13-2.7 162.23-1.6L162.23-1.6Q158.18 0.45 156.03 0.45L156.03 0.45Q155.03 0.45 154.48 0.05 153.93-0.35 153.88-0.75L153.88-0.75 153.78-1.15Q153.78-2.85 156.08-6.88 158.38-10.9 161.53-15.1L161.53-15.1Q159.13-15 156.98-15 154.83-15 154.83-15.5L154.83-15.5Q154.83-16.45 155.98-16.5ZM169.13-21.6L169.13-21.6Q169.13-21.85 168.93-21.85L168.93-21.85Q167.78-21.85 163.83-16.6L163.83-16.6 166.33-16.6Q169.13-19.65 169.13-21.6ZM164.93-15.2L164.93-15.2Q163.33-15.2 162.78-15.15L162.78-15.15Q162.33-14.5 161.53-13.25 160.73-12 160.43-11.55L160.43-11.55Q163.03-13.45 164.93-15.2ZM230.52-15.25L230.52-15.25Q231.27-15.25 231.27-14.5 231.27-13.75 230.57-12.98 229.87-12.2 229.02-12.2L229.02-12.2Q228.32-12.2 228.32-13.18 228.32-14.15 229.12-14.7 229.92-15.25 230.52-15.25ZM225.82-8.65L225.82-8.65Q226.07-9.05 226.52-9.05 226.97-9.05 227.42-8.6L227.42-8.6Q227.42-8.4 226.77-7.7 226.12-7 224.57-4.58 223.02-2.15 223.02-1.35L223.02-1.35Q223.02-0.85 223.77-0.75L223.77-0.75Q224.77-0.75 226.87-1.73 228.97-2.7 230.57-3.7L230.57-3.7 232.17-4.7Q232.22-4.6 232.22-4.3 232.22-4 231.77-3.8L231.77-3.8Q225.02 0.8 222.37 0.8L222.37 0.8Q221.07 0.8 221.07-0.5 221.07-1.8 222.49-4.13 223.92-6.45 225.82-8.65ZM287.46-3.8L287.46-3.8Q288.41-4.35 289.96-5.55L289.96-5.55Q293.76-8.55 294.01-8.55L294.01-8.55Q294.76-8.55 294.76-7.9 294.76-7.25 293.98-5.9 293.21-4.55 292.23-3.1 291.26-1.65 291.11-1.35L291.11-1.35Q291.16-1.3 291.33-1.3 291.51-1.3 293.31-2.63 295.11-3.95 297.06-5.43 299.01-6.9 299.36-7.13 299.71-7.35 300.01-7.35L300.01-7.35Q300.61-7.3 300.61-6.65L300.61-6.65Q300.61-6.4 298.91-4.13 297.21-1.85 297.21-1.2L297.21-1.2Q297.21-0.75 298.28-0.75 299.36-0.75 301.46-1.73 303.56-2.7 305.16-3.7L305.16-3.7 306.76-4.7Q306.81-4.6 306.81-4.3 306.81-4 306.36-3.8L306.36-3.8Q299.61 0.8 296.96 0.8L296.96 0.8Q295.41 0.8 295.41-0.4L295.41-0.4Q295.41-1.55 296.08-2.6 296.76-3.65 297.26-4.38 297.76-5.1 297.76-5.15L297.76-5.15Q295.46-3.5 292.31-1.2 289.16 1.1 288.76 1.1L288.76 1.1Q288.46 1.1 288.46 0.4 288.46-0.3 290.43-3.25 292.41-6.2 292.41-6.4 292.41-6.6 292.31-6.6L292.31-6.6 291.81-6.35 289.31-4.35Q289.06-4.15 288.36-3.7 287.66-3.25 287.48-3.25 287.31-3.25 287.31-3.48 287.31-3.7 287.46-3.8Z" opacity="1" transform="matrix(1,0,0,1,0,0)" fill="black" class="slogan-text-1" id="SvgjsPath1027" stroke-width="7" stroke="black" stroke-linejoin="round"></path></svg></g></svg></g></svg></g></svg></g></svg></g></svg></g></svg></g></mask><g transform="matrix(1,0,0,1,65.37471174031134,37.08)"><svg viewBox="0 0 264.7705765193773 173.04" height="173.04" width="264.7705765193773"><g><svg viewBox="0 0 264.7705765193773 173.04" height="173.04" width="264.7705765193773"><g><svg viewBox="0 0 316.416 206.79270846393655" height="173.04" width="264.7705765193773"><g><svg viewBox="0 0 316.416 206.79270846393655" height="206.79270846393655" width="316.416"><g id="textblocktransform"><svg viewBox="0 0 316.416 206.79270846393655" height="206.79270846393655" width="316.416" id="textblock"><g><svg viewBox="0 0 316.416 120.5195244385733" height="120.5195244385733" width="316.416"><g transform="matrix(1,0,0,1,0,0)"><svg width="316.416" viewBox="-2.35 -39.9 114.53999999999999 44.25" height="120.5195244385733" data-palette-color="#636365"><path d="M4.75-1.7Q2.8-2.6 1.65-4.35L1.65-4.35Q2.6-5.55 3.95-5.55L3.95-5.55Q4.6-5.55 5.38-5.3 6.15-5.05 6.4-4.95L6.4-4.95Q7.85-4.45 9.45-4.45L9.45-4.45Q12-4.45 14.23-5.65 16.45-6.85 17.55-8.9L17.55-8.9Q20.4-14.2 20.4-21.3L20.4-21.3Q20.4-24.55 19.8-28.9L19.8-28.9Q18.4-28.85 17.32-28.4 16.25-27.95 14.55-26.95L14.55-26.95Q13.4-26.3 12.1-26.3L12.1-26.3Q11.3-26.3 10.65-26.5L10.65-26.5Q10.1-26.65 9.53-27.03 8.95-27.4 8.75-27.85L8.75-27.85Q8.6-28.15 8.6-28.5L8.6-28.5Q8.6-29 8.95-29.45 9.3-29.9 9.8-30.15L9.8-30.15Q13.55-31.95 16.9-33.2L16.9-33.2Q17.7-33.45 18.85-33.55L18.85-33.55Q19.9-33.65 20.4-33.8L20.4-33.8Q21.9-34.15 22.9-34.15L22.9-34.15Q24.95-34.15 26.6-32.7L26.6-32.7 26.6-29.85Q26.65-28.45 26.65-25.6L26.65-25.6 26.65-23.85 26.6-22.45Q26.5-18 26.15-14.93 25.8-11.85 24.65-8.9L24.65-8.9Q23.35-5.65 21.18-3.65 19-1.65 15.65-1L15.65-1Q13.05-0.45 10.75-0.45L10.75-0.45Q7.55-0.45 4.75-1.7L4.75-1.7ZM46.95-2.55Q46.5-2.75 46.05-2.75L46.05-2.75Q45.6-2.75 45.27-2.53 44.95-2.3 44.55-1.85L44.55-1.85Q43.95-1.25 43.3-0.85L43.3-0.85Q42.7-0.5 41.1-0.2L41.1-0.2Q40.4-0.1 39.95-0.1L39.95-0.1Q37.85-0.1 35.57-1.03 33.3-1.95 32.35-3.25L32.35-3.25Q31.35-4.65 31.4-6.25L31.4-6.25Q31.45-8.65 33.4-11.05L33.4-11.05Q35.3-13.35 36.87-14.3 38.45-15.25 41.2-15.5L41.2-15.5Q41.8-15.5 42.92-15.7 44.05-15.9 44.05-16.25L44.05-16.25Q44.05-16.95 43.42-17.53 42.8-18.1 40.9-18.1L40.9-18.1Q40.2-18.1 38.8-18L38.8-18Q37.4-17.9 36.85-17.9L36.85-17.9Q35.15-17.9 34.4-18.45L34.4-18.45Q34.2-18.55 34.2-19.4L34.2-19.4Q34.2-20.9 35.25-21.3L35.25-21.3Q37.4-22.1 39.7-22.15L39.7-22.15Q42.6-22.15 45.07-20.88 47.55-19.6 48.7-17.7L48.7-17.7Q49.85-15.8 50.2-12.45L50.2-12.45Q50.6-8.7 50.6-2.9L50.6-2.9Q50.6-1.3 50.15-1.05L50.15-1.05Q49.75-0.8 49.4-0.8L49.4-0.8Q48.95-0.8 48.57-1.07 48.2-1.35 47.75-1.85L47.75-1.85Q47.3-2.4 46.95-2.55L46.95-2.55ZM39.05-3.15Q41.4-3.85 43.65-5.4L43.65-5.4Q44.15-5.75 44.55-6.3 44.95-6.85 45.05-7L45.05-7Q45.15-7.15 45.22-7.88 45.3-8.6 45.25-9.05L45.25-9.05Q45.2-9.2 45.07-9.85 44.95-10.5 44.7-11L44.7-11Q44.45-11.4 43.9-11.75 43.35-12.1 42.9-12.05L42.9-12.05Q41.95-12 40.85-11.35 39.75-10.7 38.8-9.6L38.8-9.6Q37.85-8.45 37.32-7.28 36.8-6.1 36.8-5.1L36.8-5.1Q36.9-3.75 37.55-3.3L37.55-3.3Q37.9-3.05 38.4-3.05L38.4-3.05Q38.8-3.05 39.05-3.15L39.05-3.15ZM55.1-18.65Q54.75-19.05 54.62-19.5 54.5-19.95 54.4-20.75L54.4-20.75Q54.85-21.8 56.05-21.8L56.05-21.8Q56.65-21.7 56.9-21.7L56.9-21.7Q57.9-21.7 58.15-22.3 58.4-22.9 58.4-23.7 58.4-24.5 58.4-24.95L58.4-24.95 58.55-27.95Q58.6-28.95 58.67-30.43 58.75-31.9 58.85-33.85L58.85-33.85Q58.9-34.9 59.37-35.4 59.85-35.9 60.7-35.9L60.7-35.9Q61.3-35.9 61.65-35.8L61.65-35.8Q63.7-35.35 64.4-34.5 65.1-33.65 65.35-31.95L65.35-31.95Q65.4-31.6 65.25-30.5L65.25-30.5 64.35-22.7Q64.3-22.4 64.2-21.98 64.1-21.55 64.1-21.35L64.1-21.35Q64.1-20.9 64.6-20.75 65.1-20.6 66.45-20.65L66.45-20.65Q68.75-21.15 69.95-21.3L69.95-21.3Q70.2-21.35 70.75-21.35L70.75-21.35Q71.35-21.35 71.55-21.2L71.55-21.2Q71.75-21.1 71.87-20.63 72-20.15 72-19.55L72-19.55Q72-19 71.87-18.55 71.75-18.1 71.55-18.05L71.55-18.05Q70.2-17.65 68.35-17.4L68.35-17.4Q66.15-17 65.1-16.7L65.1-16.7Q64.55-16.55 64-15.95 63.45-15.35 63.4-14.85L63.4-14.85Q63.3-12.4 63.25-9.85L63.25-9.85Q63.2-7.9 63.4-5.95L63.4-5.95Q63.55-4.3 64.05-3.58 64.55-2.85 65.55-2.85L65.55-2.85Q66.35-2.85 67.85-3.4L67.85-3.4Q68.65-3.75 69.25-3.75L69.25-3.75Q70.2-3.75 70.6-2.7L70.6-2.7Q70.75-2.35 70.75-2L70.75-2Q70.75-1.35 70.27-0.95 69.8-0.55 69-0.25L69-0.25Q67.5 0.3 65.95 0.35L65.95 0.35Q63.85 0.35 62-0.68 60.15-1.7 59.07-3.55 58-5.4 58.15-7.8L58.15-7.8Q58.2-8.75 58.2-10.8L58.2-10.8Q58.2-14.05 57.95-17.4L57.95-17.4Q57.9-17.7 57.6-17.82 57.3-17.95 56.6-18.1L56.6-18.1Q55.45-18.3 55.1-18.65L55.1-18.65ZM80.49-23.3Q80.39-23 79.77-22.65 79.14-22.3 78.74-22L78.74-22 77.34-22.75Q75.29-23.85 74.54-24.5L74.54-24.5Q74.14-24.8 74.14-25.25L74.14-25.25Q74.14-25.55 74.37-25.78 74.59-26 75.04-26L75.04-26Q76.99-26 79.79-25L79.79-25Q80.09-24.95 80.34-24.33 80.59-23.7 80.49-23.3L80.49-23.3ZM75.99-14Q76.14-14.65 76.19-14.95 76.24-15.25 76.24-15.6L76.24-15.6Q76.24-16.3 76.67-16.7 77.09-17.1 78.29-17.1L78.29-17.1Q79.69-17.1 80.77-16.23 81.84-15.35 82.09-13.95L82.09-13.95Q82.24-13.25 82.29-12.4 82.34-11.55 82.34-11.3L82.34-11.3 83.04-2.75Q83.19-1.4 82.67-0.68 82.14 0.05 80.69 0.05L80.69 0.05Q79.44 0.05 78.57-0.65 77.69-1.35 77.49-2.45L77.49-2.45 76.19-13.05 75.99-14ZM95.29-18.85Q95.29-18.55 95.19-18.07 95.09-17.6 95.14-17.45L95.14-17.45Q98.59-18.2 100.99-18.2L100.99-18.2Q104.74-18.2 106.64-14.6L106.64-14.6Q108.19-11.55 108.19-7.85L108.19-7.85Q108.19-6.9 107.99-5.1L107.99-5.1Q107.84-3.9 107.04-3.18 106.24-2.45 105.14-2.45L105.14-2.45Q103.99-2.45 103.52-2.88 103.04-3.3 102.97-3.85 102.89-4.4 102.89-5.6L102.89-5.6 102.84-6.65Q102.74-9.65 102.44-11.85L102.44-11.85Q102.29-12.75 101.77-13.13 101.24-13.5 100.39-13.5L100.39-13.5Q99.59-13.5 98.49-13.25L98.49-13.25Q96.79-12.8 96.22-12.55 95.64-12.3 94.54-11.5L94.54-11.5Q94.19-11.25 94.04-10.5 93.89-9.75 93.89-9.65L93.89-9.65Q93.24-6.45 92.49-2L92.49-2Q92.44-1.8 92.29-1.05 92.14-0.3 91.72 0.03 91.29 0.35 90.49 0.25L90.49 0.25Q87.34-0.15 87.29-2.4L87.29-2.4Q87.24-5.3 87.74-9.25L87.74-9.25Q88.09-12.1 88.39-13.85L88.39-13.85Q88.49-14.65 88.67-15.8 88.84-16.95 88.99-18.45L88.99-18.45Q89.14-19.6 89.29-20.15 89.44-20.7 89.99-21.08 90.54-21.45 91.69-21.45L91.69-21.45Q93.14-21.45 94.09-20.8 95.04-20.15 95.29-18.95L95.29-18.95 95.29-18.85Z" opacity="1" transform="matrix(1,0,0,1,0,0)" fill="#636365" class="wordmark-text-0" data-fill-palette-color="primary" id="text-0"></path></svg></g></svg></g><g transform="matrix(1,0,0,1,3.5,144.36638138335533)"><svg viewBox="0 0 309.416 62.42632708058123" height="62.42632708058123" width="309.416"><g transform="matrix(1,0,0,1,0,0)"><svg width="309.416" viewBox="-9.9 -38.8 320.71 63.9" height="62.42632708058123" data-palette-color="#636365"><path d="M21.95-3.8L21.95-3.8Q19.3-3.8 16.5-3L16.5-3Q10 7.15 4.23 14.13-1.55 21.1-4.15 21.1L-4.15 21.1Q-5.9 21.1-5.9 19.18-5.9 17.25-4.2 14.05-2.5 10.85 0.28 7.48 3.05 4.1 7.08 0.98 11.1-2.15 15.25-3.7L15.25-3.7Q20.4-12.5 24.1-20.3 27.8-28.1 27.8-30.35L27.8-30.35Q27.8-33.3 25.53-33.3 23.25-33.3 19.35-30.55 15.45-27.8 11.8-24 8.15-20.2 5.48-15.85 2.8-11.5 2.8-8.85 2.8-6.2 5.35-6.2L5.35-6.2Q8.05-6.2 11.43-9.4 14.8-12.6 15.35-14.85L15.35-14.85Q15.45-15.2 15.83-15.2 16.2-15.2 16.2-14.85L16.2-14.85Q16.2-12.2 11.55-8.43 6.9-4.65 3.65-4.65L3.65-4.65Q1.05-4.65 1.05-7.83 1.05-11 4.03-15.8 7-20.6 11.08-24.75 15.15-28.9 19.63-31.85 24.1-34.8 26.9-34.8L26.9-34.8Q30.25-34.8 30.25-30.45L30.25-30.45Q30.25-27.85 26.55-20.45 22.85-13.05 17.4-4.4L17.4-4.4Q20.25-5.15 21.88-5.15 23.5-5.15 24.38-4.67 25.25-4.2 25.25-3.45L25.25-3.45Q25.25-1.85 24.23-0.5 23.2 0.85 21.85 0.85L21.85 0.85Q21.65 0.85 21.65 0.7L21.65 0.7Q21.65 0.2 22.35-0.15L22.35-0.15Q23.3-1 23.3-2.4 23.3-3.8 21.95-3.8ZM-3.85 17.7L-3.85 17.7Q-3.85 18.85-2.95 18.85L-2.95 18.85Q-0.55 18.85 4.13 12.9 8.8 6.95 14.35-2.2L14.35-2.2Q9.5-0.25 5.1 3.93 0.7 8.1-1.58 11.9-3.85 15.7-3.85 17.7ZM92.44-5.95L92.44-5.95Q92.14-5.95 92.14-6.3L92.14-6.3 92.29-6.65Q93.19-7.5 93.19-8.1L93.19-8.1Q93.19-8.85 92.39-8.85L92.39-8.85Q90.64-8.85 87.66-6.43 84.69-4 84.69-2.1L84.69-2.1Q84.69-1.3 85.74-1.3 86.79-1.3 88.16-2.18 89.54-3.05 90.51-3.93 91.49-4.8 91.59-4.8L91.59-4.8Q92.09-4.75 92.09-4.3L92.09-4.3Q92.09-4.1 91.31-3 90.54-1.9 90.54-1.25L90.54-1.25Q90.54-0.75 91.36-0.75 92.19-0.75 94.29-1.73 96.39-2.7 97.99-3.7L97.99-3.7 99.59-4.7Q99.64-4.6 99.64-4.3 99.64-4 99.19-3.8L99.19-3.8Q92.44 0.8 89.79 0.8L89.79 0.8Q88.49 0.8 88.49-0.5L88.49-0.5Q88.49-1.05 88.69-1.65L88.69-1.65Q88.34-1.25 86.61-0.43 84.89 0.4 83.54 0.4 82.19 0.4 82.19-0.85L82.19-0.85Q82.19-3.8 86.29-6.88 90.39-9.95 93.19-9.95L93.19-9.95Q94.84-9.95 94.84-8.55L94.84-8.55Q94.84-7.75 93.84-6.85 92.84-5.95 92.44-5.95ZM155.98-16.5L155.98-16.5Q159.38-16.5 162.68-16.55L162.68-16.55Q168.03-23.4 169.98-23.4L169.98-23.4Q170.68-23.4 170.68-22.65L170.68-22.65Q170.68-20.25 167.18-16.65L167.18-16.65 170.98-16.7Q174.78-16.85 175.63-16.85 176.48-16.85 176.48-16.65L176.48-16.65Q176.48-15.7 175.18-15.65L175.18-15.65 165.78-15.25Q163.33-12.95 159.73-10.4L159.73-10.4Q155.93-4.15 155.93-1.9L155.93-1.9Q155.93-0.75 157.4-0.75 158.88-0.75 162.08-2.35L162.08-2.35 166.13-4.7Q166.18-4.6 166.18-4.3 166.18-4 165.73-3.8L165.73-3.8Q164.13-2.7 162.23-1.6L162.23-1.6Q158.18 0.45 156.03 0.45L156.03 0.45Q155.03 0.45 154.48 0.05 153.93-0.35 153.88-0.75L153.88-0.75 153.78-1.15Q153.78-2.85 156.08-6.88 158.38-10.9 161.53-15.1L161.53-15.1Q159.13-15 156.98-15 154.83-15 154.83-15.5L154.83-15.5Q154.83-16.45 155.98-16.5ZM169.13-21.6L169.13-21.6Q169.13-21.85 168.93-21.85L168.93-21.85Q167.78-21.85 163.83-16.6L163.83-16.6 166.33-16.6Q169.13-19.65 169.13-21.6ZM164.93-15.2L164.93-15.2Q163.33-15.2 162.78-15.15L162.78-15.15Q162.33-14.5 161.53-13.25 160.73-12 160.43-11.55L160.43-11.55Q163.03-13.45 164.93-15.2ZM230.52-15.25L230.52-15.25Q231.27-15.25 231.27-14.5 231.27-13.75 230.57-12.98 229.87-12.2 229.02-12.2L229.02-12.2Q228.32-12.2 228.32-13.18 228.32-14.15 229.12-14.7 229.92-15.25 230.52-15.25ZM225.82-8.65L225.82-8.65Q226.07-9.05 226.52-9.05 226.97-9.05 227.42-8.6L227.42-8.6Q227.42-8.4 226.77-7.7 226.12-7 224.57-4.58 223.02-2.15 223.02-1.35L223.02-1.35Q223.02-0.85 223.77-0.75L223.77-0.75Q224.77-0.75 226.87-1.73 228.97-2.7 230.57-3.7L230.57-3.7 232.17-4.7Q232.22-4.6 232.22-4.3 232.22-4 231.77-3.8L231.77-3.8Q225.02 0.8 222.37 0.8L222.37 0.8Q221.07 0.8 221.07-0.5 221.07-1.8 222.49-4.13 223.92-6.45 225.82-8.65ZM287.46-3.8L287.46-3.8Q288.41-4.35 289.96-5.55L289.96-5.55Q293.76-8.55 294.01-8.55L294.01-8.55Q294.76-8.55 294.76-7.9 294.76-7.25 293.98-5.9 293.21-4.55 292.23-3.1 291.26-1.65 291.11-1.35L291.11-1.35Q291.16-1.3 291.33-1.3 291.51-1.3 293.31-2.63 295.11-3.95 297.06-5.43 299.01-6.9 299.36-7.13 299.71-7.35 300.01-7.35L300.01-7.35Q300.61-7.3 300.61-6.65L300.61-6.65Q300.61-6.4 298.91-4.13 297.21-1.85 297.21-1.2L297.21-1.2Q297.21-0.75 298.28-0.75 299.36-0.75 301.46-1.73 303.56-2.7 305.16-3.7L305.16-3.7 306.76-4.7Q306.81-4.6 306.81-4.3 306.81-4 306.36-3.8L306.36-3.8Q299.61 0.8 296.96 0.8L296.96 0.8Q295.41 0.8 295.41-0.4L295.41-0.4Q295.41-1.55 296.08-2.6 296.76-3.65 297.26-4.38 297.76-5.1 297.76-5.15L297.76-5.15Q295.46-3.5 292.31-1.2 289.16 1.1 288.76 1.1L288.76 1.1Q288.46 1.1 288.46 0.4 288.46-0.3 290.43-3.25 292.41-6.2 292.41-6.4 292.41-6.6 292.31-6.6L292.31-6.6 291.81-6.35 289.31-4.35Q289.06-4.15 288.36-3.7 287.66-3.25 287.48-3.25 287.31-3.25 287.31-3.48 287.31-3.7 287.46-3.8Z" opacity="1" transform="matrix(1,0,0,1,0,0)" fill="#636365" class="slogan-text-1" data-fill-palette-color="secondary" id="text-1"></path></svg></g></svg></g></svg></g></svg></g></svg></g></svg></g></svg></g><g mask="url(#e9a365b7-3536-4538-b1f9-f40e37dabe0e)"><g transform="matrix(0.8173333333333332, 0, 0, 0.8173333333333332, 117.66133333333333, 1.0000000000000142)"><svg xmlns="http://www.w3.org/2000/svg" xmlns:xlink="http://www.w3.org/1999/xlink" version="1.1" x="0" y="0" viewBox="152 100 196 300" style="enable-background:new 0 0 500 500;" xml:space="preserve" height="300" width="196" class="icon-none" data-fill-palette-color="accent" id="none"><path d="M193 182c-22.6 0-41-18.4-41-41s18.4-41 41-41 41 18.4 41 41S215.6 182 193 182zM193 105c-19.9 0-36 16.1-36 36s16.1 36 36 36 36-16.1 36-36S212.9 105 193 105z" fill="#636365" data-fill-palette-color="accent"></path><circle cx="307" cy="141" r="39" fill="#636365" data-fill-palette-color="accent"></circle><circle cx="193" cy="250" r="39" fill="#636365" data-fill-palette-color="accent"></circle><circle cx="307" cy="250" r="39" fill="#636365" data-fill-palette-color="accent"></circle><path d="M193 400c-22.6 0-41-18.4-41-41s18.4-41 41-41 41 18.4 41 41S215.6 400 193 400zM193 323c-19.9 0-36 16.1-36 36s16.1 36 36 36 36-16.1 36-36S212.9 323 193 323z" fill="#636365" data-fill-palette-color="accent"></path><path d="M307 400c-22.6 0-41-18.4-41-41s18.4-41 41-41 41 18.4 41 41S329.6 400 307 400zM307 323c-19.9 0-36 16.1-36 36s16.1 36 36 36 36-16.1 36-36S326.9 323 307 323z" fill="#636365" data-fill-palette-color="accent"></path></svg></g></g></svg></g><defs></defs></svg><rect width="395.52" height="247.2" fill="none" stroke="none" visibility="hidden"></rect></g></svg></g></svg>